<!--
Derived from Heroicons (https://heroicons.com/)
Copyright (c) Tailwind Labs, Inc.
License: MIT (https://github.com/tailwindlabs/heroicons/blob/master/LICENSE)
-->
<svg width="20" height="20" viewBox="0 0 20 20" fill="none" xmlns="http://www.w3.org/2000/svg">
<path d="M7.94804 9.24902C8.7624 9.24889 9.56481 9.40063 10.3162 9.69141C10.3129 9.97335 10.3339 10.2558 10.3816 10.5352C10.4926 11.1843 10.7399 11.8033 11.1062 12.3506C11.307 12.6503 11.5421 12.9243 11.8045 13.1689V15.9189C10.6278 16.4516 9.32221 16.7499 7.94707 16.75C5.86855 16.7532 3.84802 16.0621 2.20683 14.7861C2.00883 14.6363 1.86493 14.426 1.7957 14.1875C1.72653 13.949 1.73607 13.6945 1.82304 13.4619C2.29832 12.2225 3.13789 11.1565 4.23125 10.4043C5.32475 9.65205 6.62096 9.24933 7.94804 9.24902Z" fill="currentColor"/>
<path d="M7.94707 1.75C8.69255 1.75009 9.40722 2.04686 9.93437 2.57422C10.4615 3.10166 10.7576 3.81662 10.7576 4.5625C10.7576 5.30838 10.4615 6.02335 9.93437 6.55078C9.40722 7.07814 8.69255 7.37491 7.94707 7.375C7.20145 7.375 6.48601 7.07823 5.95879 6.55078C5.4317 6.02336 5.13554 5.30831 5.13554 4.5625C5.13554 3.81669 5.4317 3.10164 5.95879 2.57422C6.48601 2.04677 7.20145 1.75 7.94707 1.75Z" fill="currentColor"/>
<path fill-rule="evenodd" clip-rule="evenodd" d="M17.2403 7.49517C17.5787 7.83334 17.8364 8.2435 17.9942 8.69511C18.1521 9.14672 18.206 9.62812 18.152 10.1035C18.098 10.5788 17.9374 11.0358 17.6822 11.4405C17.427 11.8451 17.0838 12.187 16.6782 12.4406V14.6385C16.678 14.7437 16.6362 14.8445 16.5618 14.9189L15.5539 15.9268L16.3971 16.77C16.4716 16.8445 16.5135 16.9456 16.5135 17.051C16.5135 17.1564 16.4716 17.2575 16.3971 17.3321L15.2729 18.4563C15.1983 18.5308 15.0972 18.5727 14.9918 18.5727C14.8864 18.5727 14.7853 18.5308 14.7108 18.4563L13.4219 17.1674C13.3475 17.093 13.3056 16.9921 13.3055 16.8869V12.4406C12.9264 12.2028 12.6017 11.8877 12.3528 11.5158C12.1038 11.1439 11.9362 10.7236 11.8608 10.2825C11.7854 9.84138 11.804 9.38931 11.9153 8.95585C12.0266 8.5224 12.2282 8.11732 12.5068 7.76712C12.7855 7.41692 13.1349 7.12947 13.5322 6.92359C13.9296 6.7177 14.3659 6.59801 14.8127 6.57234C15.2595 6.54667 15.7067 6.6156 16.125 6.77463C16.5433 6.93365 16.9234 7.17918 17.2403 7.49517ZM13.8676 8.61939C13.7558 8.7312 13.693 8.88284 13.693 9.04097C13.693 9.19909 13.7558 9.35074 13.8676 9.46255C13.9794 9.57436 14.1311 9.63718 14.2892 9.63718C14.4473 9.63718 14.599 9.57436 14.7108 9.46255C14.7853 9.38801 14.8864 9.34613 14.9918 9.34613C15.0972 9.34613 15.1983 9.38801 15.2729 9.46255C15.3847 9.57436 15.5363 9.63718 15.6945 9.63718C15.8526 9.63718 16.0042 9.57436 16.116 9.46255C16.2279 9.35074 16.2907 9.19909 16.2907 9.04097C16.2907 8.88285 16.2279 8.7312 16.116 8.61939C15.8179 8.32123 15.4135 8.15372 14.9918 8.15372C14.5702 8.15372 14.1658 8.32123 13.8676 8.61939Z" fill="currentColor"/>
</svg>
