<!--
Derived from Heroicons (https://heroicons.com/)
Copyright (c) Tailwind Labs, Inc.
License: MIT (https://github.com/tailwindlabs/heroicons/blob/master/LICENSE)
-->
<svg width="24" height="24" viewBox="0 0 24 24" fill="none" xmlns="http://www.w3.org/2000/svg">
<path fill-rule="evenodd" clip-rule="evenodd" d="M15.6231 9.49406C15.2588 9.85827 14.9786 10.2977 14.802 10.7817C14.6255 11.2656 14.557 11.7823 14.6012 12.2955C14.6455 12.8087 14.8014 13.3061 15.0582 13.7526C15.3149 14.1992 15.6662 14.5842 16.0875 14.8807C16.2566 15.0003 16.3409 15.1579 16.3409 15.2978L16.3406 20.1079C16.3407 20.5242 16.5062 20.9233 16.8005 21.2177L17.8433 22.2604C17.9965 22.4136 18.2452 22.4136 18.3984 22.2604L19.786 20.8728C19.8596 20.7992 19.901 20.6993 19.901 20.5953C19.901 20.4912 19.8596 20.3913 19.786 20.3177L19.231 19.7627L19.786 19.2076C19.8596 19.134 19.901 19.0342 19.901 18.9301C19.901 18.826 19.8596 18.7261 19.786 18.6525L19.231 18.0975L19.786 17.5424C19.8595 17.4688 19.9008 17.369 19.9007 17.2649V15.2978C19.9011 15.1575 19.9855 14.9999 20.1546 14.8811C20.5541 14.599 20.8906 14.2371 21.1429 13.8182C21.3953 13.3993 21.5579 12.9326 21.6205 12.4476C21.683 11.9626 21.6442 11.4699 21.5065 11.0006C21.3688 10.5314 21.1351 10.0959 20.8203 9.72165C20.5055 9.34742 20.1164 9.04264 19.6777 8.82659C19.239 8.61054 18.7602 8.48793 18.2717 8.46654C17.7831 8.44514 17.2954 8.52542 16.8395 8.7023C16.3836 8.87917 15.9694 9.14878 15.6231 9.49406ZM16.7332 10.6042C16.6596 10.6778 16.6182 10.7776 16.6182 10.8817C16.6182 10.9858 16.6596 11.0856 16.7332 11.1592C16.8068 11.2328 16.9066 11.2742 17.0107 11.2742C17.1148 11.2742 17.2146 11.2328 17.2882 11.1592C17.5091 10.9384 17.8086 10.8144 18.1208 10.8144C18.4331 10.8144 18.7326 10.9384 18.9534 11.1592C19.027 11.2328 19.1269 11.2742 19.231 11.2742C19.335 11.2742 19.4349 11.2328 19.5085 11.1592C19.5821 11.0856 19.6234 10.9858 19.6234 10.8817C19.6234 10.7776 19.5821 10.6778 19.5085 10.6042C19.1405 10.2362 18.6413 10.0294 18.1208 10.0294C17.6004 10.0294 17.1012 10.2362 16.7332 10.6042Z" fill="currentColor"/>
<path d="M9.42031 10.9854C10.7247 10.9854 11.9918 11.3464 13.0893 12.0127C13.0898 12.15 13.095 12.2875 13.1068 12.4248C13.1699 13.1557 13.3926 13.864 13.7582 14.5C14.0428 14.995 14.4091 15.4369 14.8402 15.8076V19.0586C13.1042 19.6804 11.2712 20.0005 9.42031 19.998C7.03259 19.998 4.76392 19.4769 2.725 18.541C2.61143 18.4889 2.51515 18.4046 2.44863 18.2988C2.38226 18.1931 2.34777 18.0701 2.35 17.9453C2.37898 16.0895 3.13687 14.3198 4.45938 13.0176C5.7821 11.7153 7.5641 10.9854 9.42031 10.9854Z" fill="currentColor"/>
<path d="M9.42031 2C10.4431 2.00006 11.4236 2.40668 12.1469 3.12988C12.8701 3.85309 13.2767 4.83368 13.2768 5.85645C13.2768 6.87933 12.8702 7.8607 12.1469 8.58398C11.4237 9.30708 10.443 9.71381 9.42031 9.71387C8.39743 9.71387 7.41606 9.30727 6.69277 8.58398C5.96953 7.8607 5.56289 6.8793 5.56289 5.85645C5.56298 4.83379 5.9697 3.85307 6.69277 3.12988C7.41606 2.4066 8.39743 2 9.42031 2Z" fill="currentColor"/>
</svg>
